<svg xmlns="http://www.w3.org/2000/svg" width="58.494" height="90.368" viewBox="0 0 58.494 90.368">
  <defs>
    <style>
      .cls-1 {
        fill: #718355;
      }

      .cls-2 {
        fill: rgba(113,131,85,0.29);
      }
    </style>
  </defs>
  <g id="Group_3" data-name="Group 3" transform="translate(-1521.841 -1503.733)">
    <g id="Group_2" data-name="Group 2" transform="translate(1534.193 1519.259)">
      <path id="Path_6" data-name="Path 6" class="cls-1" d="M1866.565,2095.781a23.157,23.157,0,0,0-34.744-20.119v20.119a11.6,11.6,0,0,1,11.413-11.613h.337a17.421,17.421,0,0,1,.056,34.838A23.2,23.2,0,0,0,1866.565,2095.781Z" transform="translate(-1820.424 -2044.165)"/>
      <path id="Path_7" data-name="Path 7" class="cls-1" d="M1722.355,1762.241a17.4,17.4,0,0,0-17.2-17.419,11.614,11.614,0,1,1-11.749,11.613V1713.5a7.737,7.737,0,0,0-3.393-6.13,13.733,13.733,0,0,0-8.189-2.54v51.6a23.19,23.19,0,0,0,22.937,23.225l.225,0,.225,0A17.4,17.4,0,0,0,1722.355,1762.241Z" transform="translate(-1681.822 -1704.835)"/>
    </g>
    <path id="Path_8" data-name="Path 8" class="cls-2" d="M1550,1704.94Z" transform="translate(-25.985 -185.673)"/>
    <path id="Path_9" data-name="Path 9" class="cls-1" d="M1533.421,1704.94h0v62.071h0a11.581,11.581,0,0,1-11.581-11.581v-38.908A11.581,11.581,0,0,1,1533.421,1704.94Z" transform="translate(0 -185.672)"/>
    <circle id="Ellipse_2" data-name="Ellipse 2" class="cls-1" cx="5.745" cy="5.745" r="5.745" transform="translate(1521.841 1503.733)"/>
  </g>
</svg>
