<svg xmlns="http://www.w3.org/2000/svg" width="977.564" height="360.797" viewBox="0 0 977.564 360.797">
  <defs>
    <style>
      .cls-1 {
        fill: #fff;
      }

      .cls-2 {
        fill: #004315;
      }
    </style>
  </defs>
  <g id="Group_7" data-name="Group 7" transform="translate(-125 -353.623)">
    <path id="Path_11" data-name="Path 11" class="cls-1" d="M604.392,387.736c0,.587-.033,1.172-.048,1.757L713.758,372.76a58.324,58.324,0,0,0,6.476-.993,68.088,68.088,0,0,0,17.872-6.082,41.858,41.858,0,0,0,15.778-13.3s-11.606,10.246-33.778,14.644l-8.93,1.371-.082,0L604.3,384.738C604.343,385.726,604.392,386.712,604.392,387.736Z" transform="translate(145.428 4.457)"/>
    <path id="Path_12" data-name="Path 12" class="cls-1" d="M725.66,376.308l-11.675,1.778-.124,0v.017l-109.452,16.74v0c-.128,1.38-.287,2.758-.489,4.136l-.012.1c-.206,1.4-.439,2.791-.714,4.183a16.354,16.354,0,0,1,9.308-1.773,15.907,15.907,0,0,1,1.873.315c.353.08.693.188,1.039.288.226.066.454.126.675.2.458.155.9.336,1.34.529.077.034.154.067.231.1.5.228.979.477,1.45.751L714.3,389.12a.493.493,0,0,0,.145-.022,96.254,96.254,0,0,0,10.229-1.564,83.368,83.368,0,0,0,15.255-4.589c27.277-11.139,34.838-32.209,35.117-33.03C756.259,366.8,737.44,373.573,725.74,376.29,725.7,376.29,725.679,376.291,725.66,376.308Z" transform="translate(145.093 3.707)"/>
    <path id="Path_13" data-name="Path 13" class="cls-1" d="M735.894,542a49.589,49.589,0,0,0,23.375-19.965l2.325-3.9c-17.882,10.293-36.887,17.216-57.689,18.858L585.49,555.061q-1.222,3.3-2.445,6.49c-.047.12-.093.242-.138.361-.832,2.16-1.663,4.287-2.494,6.361h0l135.4-20.653A84.653,84.653,0,0,0,735.894,542Z" transform="translate(138.181 54.75)"/>
    <path id="Path_15" data-name="Path 15" class="cls-1" d="M292.044,622.041,592.71,576.18c-.112-.777-.2-1.56-.257-2.353s-.089-1.594-.089-2.4c0-.181.038-.357.043-.538L289.426,617.1a51.855,51.855,0,0,0-6.486.992A62.545,62.545,0,0,0,265,624.582a42.905,42.905,0,0,0-15.924,14.64s11.716-11.289,33.937-15.807l8.945-1.371Z" transform="translate(37.648 70.754)"/>
    <path id="Path_16" data-name="Path 16" class="cls-1" d="M282.748,617.3l11.693-1.774.125,0v-.017l303.745-46.327,0-.008a16.632,16.632,0,0,1,.968-2.151,15.37,15.37,0,0,1,1.3-2.044l.328-.433c3.154-4.167,5.361-5.487-.4-4.452a40.7,40.7,0,0,1-7.191.652h0c-.957,0-1.907-.042-2.848-.116-.671-.05-1.332-.14-1.993-.226-.233-.031-.469-.051-.7-.086-.838-.125-1.666-.289-2.488-.472l-.1-.022c-.864-.194-1.715-.424-2.559-.682l-.012,0L294.244,603.128a.452.452,0,0,0-.143.021,86.844,86.844,0,0,0-10.247,1.563,76.177,76.177,0,0,0-15.3,4.864c-27.4,11.991-35.19,35.514-35.478,36.43,18.973-18.606,37.867-25.858,49.6-28.684C282.708,617.32,282.727,617.32,282.748,617.3Z" transform="translate(32.791 67.189)"/>
    <path id="Path_17" data-name="Path 17" class="cls-1" d="M729.04,547.791l-6.135.945-.061,0-143.577,21.9-.009.023q-1.218,2.917-2.432,5.683l0,.005,147.087-22.436h.019a53.785,53.785,0,0,0,6.694-1.013c.041-.018.1-.021.144-.039a54.46,54.46,0,0,0,20.026-8.385,31.887,31.887,0,0,0,12.234-16.155S752.11,543.232,729.04,547.791Z" transform="translate(137.092 57.84)"/>
    <path id="Path_18" data-name="Path 18" class="cls-1" d="M283.269,443.706l6.125-.946.063,0,171.311-26.2a25.4,25.4,0,0,1,8.192-2.473,28.666,28.666,0,0,1,3.414-.2,28.074,28.074,0,0,1,3.91.3l124.458-19.035q1.787-2.684,3.611-5.315L288.339,438.166h-.021a60.6,60.6,0,0,0-6.683,1.017c-.04.017-.1.02-.143.036-5.455,1.123-13.228,3.384-19.941,7.8-5.217,3.407-9.76,8.112-12.074,14.588C249.478,461.612,260.248,448.153,283.269,443.706Z" transform="translate(37.769 15.819)"/>
    <path id="Path_19" data-name="Path 19" class="cls-1" d="M275.3,444.168a48.839,48.839,0,0,0-23.177,18.168l-2.288,3.509c17.779-9.465,36.713-15.949,57.494-17.763l134.9-20.634.008-.012q1.218-1.891,2.454-3.623c.013-.021.027-.039.042-.059q1.232-1.726,2.487-3.292h0a54,54,0,0,1,5.19-5.659L295.323,438.827A93.173,93.173,0,0,0,275.3,444.168Z" transform="translate(37.879 23.395)"/>
    <path id="Path_20" data-name="Path 20" class="cls-1" d="M430.726,414.883c.705.386,1.387.8,2.052,1.242.087.057.171.117.257.175.586.4,1.161.815,1.714,1.26.244.194.473.407.712.61.4.349.811.69,1.193,1.061a25.745,25.745,0,0,1,1.819,1.947,16.565,16.565,0,0,1,3.985,2.981l.016.016,92.4-14.134,0-.005q3.668-6.18,7.543-12.227l.007-.009Z" transform="translate(92.763 18.236)"/>
    <g id="Group_2" data-name="Group 2" transform="translate(145.432 375.444)">
      <path id="Path_21" data-name="Path 21" class="cls-2" d="M401.976,543.885a36.849,36.849,0,0,1-1.784-14.75c1.048-3.629,17.9-36.077,31.269-37.674a1.759,1.759,0,0,0,.718-.252,7.3,7.3,0,0,1-.194-3.256,2.677,2.677,0,0,1,.4-1.031,12.235,12.235,0,0,0-2.229-3.382,7.856,7.856,0,0,1,.336,2.716,4.377,4.377,0,0,1-3.888,4.149c-11.04,1.319-27.2,30.556-28.919,35.48C397.3,533.961,398.83,540.3,401.976,543.885Z" transform="translate(-62.712 -331.192)"/>
      <path id="Path_22" data-name="Path 22" class="cls-2" d="M362.57,478.044a75.666,75.666,0,0,1-10.18-.656c7.482,1.894,17.077,2.157,27.1.972a125.1,125.1,0,0,0,19.152-4.084c.318-.9.645-1.83.958-2.7a139.432,139.432,0,0,1-24.972,5.734A103.4,103.4,0,0,1,362.57,478.044Z" transform="translate(-76.438 -334.823)"/>
      <path id="Path_23" data-name="Path 23" class="cls-2" d="M425.725,433.2c-2.385,3.514-5.584,9.031-8.356,14.091C421.675,443.356,425.116,438.6,425.725,433.2Z" transform="translate(-56.722 -346.465)"/>
      <path id="Path_24" data-name="Path 24" class="cls-2" d="M805.926,430.613c.2-.261-.3-1.006-1.256-1.782-.017-.014-.039-.027-.057-.042s-.039-.027-.056-.04-.041-.027-.057-.042-.04-.027-.056-.04-.04-.027-.057-.04-.041-.029-.057-.043-.04-.026-.057-.04-.039-.027-.056-.04-.04-.027-.057-.04-.04-.029-.057-.042l-.056-.04c-.017-.014-.041-.027-.057-.042s-.041-.026-.057-.04-.041-.027-.057-.04-.039-.029-.057-.042-.039-.027-.056-.04-.041-.027-.057-.042-.039-.027-.056-.04-.04-.027-.057-.042-.04-.027-.057-.04-.041-.027-.056-.042-.04-.027-.057-.042-.04-.026-.057-.04-.039-.027-.057-.04l-.03-.022a2.921,2.921,0,0,1-.405.714,2.492,2.492,0,0,1-.227.255c-7.167,7.1-12.717,28.781-18.342,53.13,1.726-2.423,3.419-4.99,5.13-7.757C794.33,453.964,799.391,437.09,805.926,430.613Z" transform="translate(54.611 -348.097)"/>
      <path id="Path_25" data-name="Path 25" class="cls-2" d="M353.662,480.192c-.014-.012-.03-.017-.044-.029s-.038-.026-.056-.04-.039-.026-.057-.042-.039-.026-.057-.04-.038-.027-.057-.042-.038-.026-.056-.04-.039-.027-.057-.042-.038-.026-.056-.04-.039-.027-.057-.042-.039-.026-.057-.04-.039-.026-.057-.04l-.056-.042c-.018-.014-.039-.027-.057-.04s-.039-.027-.057-.042h0c.478,2.809.343,6.607-.426,11.739.929-.066,1.933-.1,2.948-.109C356.037,485.053,355.432,481.556,353.662,480.192Z" transform="translate(-76.419 -332.379)"/>
      <path id="Path_26" data-name="Path 26" class="cls-2" d="M758.736,515.659c-6.446,7.963-11.984,15.658-12.422,19.652C749.561,533.84,753.72,527.255,758.736,515.659Z" transform="translate(43.086 -321.447)"/>
      <path id="Path_27" data-name="Path 27" class="cls-2" d="M328.947,508.746a2.55,2.55,0,0,1-.278.292c-8.754,7.873-17.012,38.112-13.974,46.032.36.94.635.94.752.94a1.456,1.456,0,0,0,.209-.017,5.133,5.133,0,0,0,.975-.267c-.755-12.258,7.384-37.734,15.419-44.961,1.191-1.447.113-3.621-2.046-5.147A4.784,4.784,0,0,1,328.947,508.746Z" transform="translate(-88.07 -324.494)"/>
      <path id="Path_28" data-name="Path 28" class="cls-2" d="M615.988,379.674c0,56.328-81.64,116.331-99.105,126.718-5.792,14.652-13.672,41.693-13.672,57.977,0,5.554.916,9.786,2.647,12.238a6.717,6.717,0,0,0,1.056,1.178A33.07,33.07,0,0,1,505.7,568.1c0-17.354,8.582-45.884,14.207-59.837,19.854-11.321,98.571-70.91,98.571-124.858,0-8.126-1.939-13.416-4.675-16.749A35.114,35.114,0,0,1,615.988,379.674Z" transform="translate(-30.676 -366.657)"/>
      <path id="Path_29" data-name="Path 29" class="cls-2" d="M437.717,449.443l-.594,1.044c-4.836,8.487-13.715,16.593-25.707,23.48-5.049,12.089-9.472,23.868-13.339,35.543a91.829,91.829,0,0,1,7.231-10.328c2.834-7.784,5.876-15.543,9.16-23.372,11.19-6.3,20.49-14.139,25.5-22.931l.534-.933c3.674-7.174,4.7-13.726,2.5-21.087a9.694,9.694,0,0,0-1.142-2.29,9.9,9.9,0,0,0-1.314-1.614C442.622,434.47,441.726,441.616,437.717,449.443Z" transform="translate(-62.576 -348.361)"/>
      <path id="Path_30" data-name="Path 30" class="cls-2" d="M346.515,438.484c-.02-.012-.034-.027-.053-.038a4.19,4.19,0,0,1-.821,1.691c-5.447,7.424-5.9,13.609-1.3,18.74-.083-.267-.2-.528-.267-.8-1.167-4.911.567-10.339,4.685-15.945a1.529,1.529,0,0,0-.365-2.3c-.021-.012-.035-.029-.057-.04a.632.632,0,0,0-.057-.04.57.57,0,0,0-.056-.042c-.02-.012-.036-.029-.057-.042s-.035-.029-.056-.04-.036-.029-.057-.042-.036-.029-.057-.04-.035-.029-.057-.042-.035-.029-.056-.04-.036-.029-.057-.042-.037-.029-.057-.041-.035-.029-.056-.04-.037-.03-.057-.042-.036-.029-.057-.04a.669.669,0,0,0-.057-.042c-.02-.013-.035-.029-.056-.04s-.036-.03-.057-.04-.035-.03-.057-.042a.563.563,0,0,0-.056-.04c-.021-.013-.037-.03-.057-.042s-.036-.03-.057-.04-.035-.03-.056-.042-.036-.03-.057-.04-.035-.03-.057-.042-.037-.029-.057-.04a.65.65,0,0,0-.057-.042c-.02-.012-.035-.029-.056-.04s-.036-.03-.056-.042-.037-.029-.057-.04-.036-.029-.057-.042-.035-.029-.057-.04-.035-.029-.056-.042S346.536,438.5,346.515,438.484Z" transform="translate(-79.834 -344.875)"/>
      <path id="Path_31" data-name="Path 31" class="cls-2" d="M442.763,472.361a12.267,12.267,0,0,1,.043,2.513c-.484,5.528-3.02,11.078-7.337,16.055-.662.763-1.37,1.478-2.082,2.192-.44.442-.881.882-1.307,1.34l-.185.2a11.414,11.414,0,0,1-3.046,2.539.488.488,0,0,0,.04.029c.02.012.036.03.057.04s.036.03.056.042.036.03.057.04.036.03.057.042.036.03.057.04.036.03.056.042.036.029.057.04.036.03.057.042.036.03.056.04.036.03.057.042.036.03.057.04.036.03.057.042.035.03.056.04.036.03.057.042.036.03.057.04.035.03.056.04a.514.514,0,0,0,.057.04.589.589,0,0,0,.057.042.4.4,0,0,0,.056.04c.021.013.037.031.057.042a.514.514,0,0,0,.057.04.551.551,0,0,0,.056.042c.021.013.036.03.057.04s.036.03.057.042.037.03.057.04.035.031.056.042.037.03.057.04.036.03.057.042.036.03.056.04.036.03.057.042.036.03.057.04.037.03.056.042.036.03.057.042.036.03.057.04.037.03.057.04.036.03.056.042.036.03.057.04a1.042,1.042,0,0,0,.592.146,30.943,30.943,0,0,1,10.259-12.575c.082-.057.666-.454,1.606-.979a22.115,22.115,0,0,0,1.85-6.965,9.515,9.515,0,0,0-.033-1.956,8.492,8.492,0,0,0-2.681-5.341c-.018-.017-.04-.027-.057-.042s-.031-.022-.048-.036A12.29,12.29,0,0,1,442.763,472.361Z" transform="translate(-53.239 -334.999)"/>
      <path id="Path_32" data-name="Path 32" class="cls-2" d="M472.277,439.934a9.193,9.193,0,0,1-.585,2.324,4.4,4.4,0,0,1-.632,2.281,13.746,13.746,0,0,0-1.353,5.665c0,4.455,1.2,7.973,3.571,10.676a21.328,21.328,0,0,1-1.083-6.946,16.852,16.852,0,0,1,1.662-6.946,2.191,2.191,0,0,0,.33-1.534,7.086,7.086,0,0,0,.657-3.068,1.178,1.178,0,0,0-.491-.959c-.018-.014-.036-.025-.055-.039l-.057-.04c-.018-.014-.038-.027-.057-.042s-.038-.026-.057-.04l-.056-.042-.057-.04c-.018-.014-.038-.027-.057-.04s-.038-.027-.056-.042-.038-.026-.057-.04-.038-.026-.057-.04-.038-.027-.056-.042a.566.566,0,0,0-.057-.04c-.018-.016-.038-.027-.057-.042s-.038-.026-.057-.04-.036-.027-.056-.042-.038-.026-.057-.04-.038-.027-.056-.042-.038-.026-.057-.04-.038-.027-.057-.042a.579.579,0,0,0-.057-.04c-.018-.016-.038-.027-.057-.042s-.036-.026-.056-.04-.038-.027-.057-.042-.038-.027-.056-.04-.038-.027-.057-.042-.038-.026-.057-.04-.038-.027-.057-.042-.038-.027-.056-.04l-.057-.042c-.018-.014-.038-.026-.057-.04s-.038-.026-.057-.04-.036-.027-.056-.042-.038-.026-.057-.04a.569.569,0,0,0-.057-.041c-.017-.016-.038-.027-.056-.042s-.038-.027-.057-.042Z" transform="translate(-40.842 -344.423)"/>
      <path id="Path_33" data-name="Path 33" class="cls-2" d="M526.735,465.619c1.932-1.372,4.14-2.978,6.535-4.771,16.525-31.719,42.807-75.65,58.513-81.744a2.5,2.5,0,0,0-2.228-1.732,2.64,2.64,0,0,0-.453.043C574.937,379.966,545.713,427.79,526.735,465.619Z" transform="translate(-23.538 -363.406)"/>
      <path id="Path_34" data-name="Path 34" class="cls-2" d="M358.347,551.372a4.19,4.19,0,0,0,.555-.041c.107-.016.223-.057.332-.081.021-13.777,14.078-45.128,12.381-52.691a5.692,5.692,0,0,0-1.095-2.235,6.087,6.087,0,0,0-.886-.91c-.017-.014-.039-.025-.056-.04s-.039-.026-.057-.04-.039-.026-.056-.042-.039-.026-.057-.04-.039-.026-.057-.042-.039-.026-.056-.04-.04-.026-.057-.042-.04-.026-.057-.04l-.028-.02c.516,4.442-1.8,12.193-5.559,24.142-3.53,11.217-8.865,28.167-6.194,31.806C357.5,551.159,357.66,551.372,358.347,551.372Z" transform="translate(-75.137 -327.695)"/>
      <path id="Path_35" data-name="Path 35" class="cls-2" d="M811.551,469.213c16.856-3.027,29.421-28.57,33.158-45.385,1.3-6.08,2.252-13.08-1.769-16.14l-.007,0c.875,3.917.158,8.638-.774,12.978-3.565,16.046-15.71,42.353-33.537,47.078-4.249,19.478-4.305,38.843-.01,40.384a2.438,2.438,0,0,1,.237.125C806.582,498.905,808.765,481.3,811.551,469.213Z" transform="translate(61.018 -354.209)"/>
      <path id="Path_36" data-name="Path 36" class="cls-2" d="M787.618,419.265a19.9,19.9,0,0,1,.829,4.441,9.257,9.257,0,0,1,1.585-.553A9.86,9.86,0,0,0,787.618,419.265Z" transform="translate(55.619 -350.695)"/>
      <path id="Path_37" data-name="Path 37" class="cls-2" d="M753.893,499.044c-.152.029-.3.021-.452.043a6.4,6.4,0,0,0,5.16,1.038c3.4-.609,6.941-3.631,10.364-7.822,1.337-4.111,2.591-8.123,3.734-11.9C766.642,490.5,760.35,497.887,753.893,499.044Z" transform="translate(45.249 -332.143)"/>
      <path id="Path_38" data-name="Path 38" class="cls-2" d="M735.306,438.369c.04-.006.081,0,.121-.01a12.737,12.737,0,0,0-3.205-7.384,23.681,23.681,0,0,1,.94,7.953A15.158,15.158,0,0,1,735.306,438.369Z" transform="translate(38.811 -347.142)"/>
      <path id="Path_39" data-name="Path 39" class="cls-2" d="M890.742,388.076l-2.735-.352c-.761-.094-1.576-.175-2.409-.231-1.517-.109-3.165-.16-5.193-.16a166.671,166.671,0,0,0-22.474,1.921c-6.946.984-14.322,2.268-23.215,4.042-15.71,3.129-31.72,6.919-46.772,10.529l-5.331,1.3c-13.656,3.335-27.776,6.786-41.743,10.042-13.956,3.272-30.538,7.059-47.675,10.346-14.377,2.741-31.458,5.657-49.162,6.5-2.758.106-5.055.156-7.251.156a106.176,106.176,0,0,1-11.092-.533c-.048,0-1.391-.146-1.67-.18,0,0-1.1-.138-1.361-.176l-.089-.013c1.13.284,2.337.543,3.647.769a.724.724,0,0,1,.226.042c.616.1,1.211.186,1.808.27.411.061.841.1,1.293.166.493.061,1.006.1,1.52.166h.02a124.816,124.816,0,0,0,18.005.373c16.63-.787,32.789-3.4,48.783-6.448,15.993-3.068,31.823-6.636,47.571-10.326,15.747-3.669,31.433-7.526,47.057-11.341,15.645-3.754,31.269-7.444,46.872-10.554,7.8-1.555,15.6-2.965,23.365-4.064a171.72,171.72,0,0,1,22.85-1.949c1.827,0,3.634.042,5.379.167.882.061,1.745.145,2.566.248l2.751.353c.563.076,1.105.192,1.663.278C895.632,388.885,893.248,388.415,890.742,388.076Z" transform="translate(5.54 -360.383)"/>
      <path id="Path_40" data-name="Path 40" class="cls-2" d="M759.193,488.527c0,.083,0,.164,0,.241a31.737,31.737,0,0,0,3.1-3.954c2.856-19.639,15.324-47.633,23.536-56.956a22.976,22.976,0,0,0-.945-4.084C778.494,426.721,759.193,466.524,759.193,488.527Z" transform="translate(46.994 -349.326)"/>
      <path id="Path_41" data-name="Path 41" class="cls-2" d="M812.954,448.129c.043-.069.091-.136.141-.2a79.555,79.555,0,0,0,11.882-22.944,86.469,86.469,0,0,0,2.155-9.562c-4.643,6.054-11.8,23.348-15.675,34.861Q812.19,449.333,812.954,448.129Z" transform="translate(62.852 -351.861)"/>
      <path id="Path_42" data-name="Path 42" class="cls-2" d="M663.84,444.792l.013-.038c-.05,0-.094-.009-.143-.012C663.754,444.758,663.795,444.774,663.84,444.792Z" transform="translate(18.023 -342.965)"/>
      <path id="Path_43" data-name="Path 43" class="cls-2" d="M732.5,494.827h.026a1.233,1.233,0,0,0,.293-.03,5.674,5.674,0,0,0,1.168-.413c-.538-12.588,7.76-38.835,15.791-46.625,1.073-1.387.325-3.279-1.4-4.695-.2-.167-.413-.323-.636-.476a4.982,4.982,0,0,1-1.017,3.089,2.648,2.648,0,0,1-.254.285c-7.459,7.235-16.228,34.282-14.893,45.936C731.855,494.34,732.492,494.823,732.5,494.827Z" transform="translate(38.573 -343.618)"/>
      <path id="Path_44" data-name="Path 44" class="cls-2" d="M636.66,456.107c.033-.005.068,0,.1-.008a12.747,12.747,0,0,0-3.205-7.4,23.721,23.721,0,0,1,.937,7.96A14.708,14.708,0,0,1,636.66,456.107Z" transform="translate(8.873 -341.764)"/>
      <path id="Path_45" data-name="Path 45" class="cls-2" d="M674.351,425.668c-.017-.013-.036-.025-.053-.038s-.039-.026-.057-.04-.038-.027-.057-.042-.038-.026-.056-.04-.039-.027-.057-.042-.039-.027-.057-.04-.038-.027-.057-.042-.038-.026-.056-.04-.039-.027-.057-.042-.038-.026-.057-.04l-.056-.042c-.02-.013-.039-.026-.057-.04s-.038-.027-.057-.042l-.044-.031c.459,2.828.3,6.687-.5,11.922.955-.124,1.96-.215,2.982-.282C676.719,430.42,676.122,426.928,674.351,425.668Z" transform="translate(20.863 -348.922)"/>
      <path id="Path_46" data-name="Path 46" class="cls-2" d="M730.535,440.36a20.39,20.39,0,0,0-.974-4.252c-6.554,4.274-25.355,43.008-25.359,64.364a41.466,41.466,0,0,0,3.178-4.171C710.329,476.94,722.4,449.929,730.535,440.36Z" transform="translate(30.309 -345.584)"/>
      <path id="Path_47" data-name="Path 47" class="cls-2" d="M676.79,507.414a2.761,2.761,0,0,0,.544-.061,5.4,5.4,0,0,0,.826-.251c.005-16.01,16.165-55.7,14.51-63.514a5.644,5.644,0,0,0-1.949-3.1c-.018-.014-.039-.026-.057-.04s-.039-.027-.057-.04-.039-.027-.056-.04-.039-.027-.057-.042-.039-.027-.057-.042-.038-.026-.056-.04-.039-.026-.057-.042-.039-.026-.057-.04a.18.18,0,0,0-.025-.018c.41,4.592-2.179,13.613-6.3,27.457-3.966,13.321-10.6,35.615-7.607,39.636C676.415,507.346,676.465,507.414,676.79,507.414Z" transform="translate(21.623 -344.36)"/>
      <path id="Path_48" data-name="Path 48" class="cls-2" d="M633.829,512.544h.026a1.24,1.24,0,0,0,.292-.031,5.791,5.791,0,0,0,1.169-.409c-.538-12.588,7.76-38.831,15.791-46.608,1.2-1.556.124-3.734-2.035-5.172a5.025,5.025,0,0,1-1.011,3.083,2.589,2.589,0,0,1-.263.293c-7.45,7.214-16.217,34.243-14.89,45.906C633.185,512.054,633.822,512.54,633.829,512.544Z" transform="translate(8.636 -338.237)"/>
      <path id="Path_49" data-name="Path 49" class="cls-2" d="M631.865,458.082a20.327,20.327,0,0,0-.974-4.253c-6.557,4.287-25.363,43.035-25.358,64.382a42.028,42.028,0,0,0,3.178-4.183C611.659,494.678,623.731,467.654,631.865,458.082Z" transform="translate(0.371 -340.207)"/>
      <path id="Path_50" data-name="Path 50" class="cls-2" d="M446.32,531.532l.776-.837a82.348,82.348,0,0,1-3.874-14.654c.472-16.961,21.7-27.785,21.7-27.785a11.784,11.784,0,0,0-2.806-2.487,2.68,2.68,0,0,1-1.15,1.155c-.2.1-19.619,10.219-20.226,25.236.82,5.551,2.788,11.259,4.691,16.783Q445.879,530.24,446.32,531.532Z" transform="translate(-49.631 -330.516)"/>
      <path id="Path_51" data-name="Path 51" class="cls-2" d="M493.315,484.511c-1.5.371-2.894.62-4.263.867a48.572,48.572,0,0,1-8.412.747,41.663,41.663,0,0,1-4.579-.271,40.008,40.008,0,0,0,16.775.757C493,485.912,493.145,485.2,493.315,484.511Z" transform="translate(-38.914 -330.898)"/>
      <path id="Path_52" data-name="Path 52" class="cls-2" d="M623.587,503.575c-7.433,14.242-15.325,25.982-23.555,27.46-.132.023-.254.016-.385.035a6.271,6.271,0,0,0,5.091,1.044c6.638-1.193,13.665-11.437,19.244-21.517A54.131,54.131,0,0,1,623.587,503.575Z" transform="translate(-1.415 -325.113)"/>
      <path id="Path_53" data-name="Path 53" class="cls-2" d="M621.281,445.947a6.287,6.287,0,0,0-2.556-4.576l-.056-.042-.021-.014c.037.215.108.409.132.632a2.7,2.7,0,0,1-.185,1.283l-.263.646c-13.607,52.134-39.521,143.935-60.54,174.447-4.391,6.856-10.158,11.135-16.628,12.3a18,18,0,0,1-3.2.287c-.139,0-.275-.018-.414-.021a15.562,15.562,0,0,0,8.321.813c5.3-.954,10.593-4.48,14.884-11.176,21.5-31.2,47.961-126.871,60.2-173.769Z" transform="translate(-20.257 -344.004)"/>
      <path id="Path_54" data-name="Path 54" class="cls-2" d="M376.363,543.258q.027-.858.069-1.732c-8.651,13.159-16.693,20.262-23.95,21.126-.643.077-1.238.1-1.83.113a11.312,11.312,0,0,0,6.7.944c6.35-.757,13.111-7.4,19.3-16.014A25.944,25.944,0,0,1,376.363,543.258Z" transform="translate(-76.965 -313.598)"/>
      <path id="Path_55" data-name="Path 55" class="cls-2" d="M392.2,530.089c-.846,1.835-1.337,2.8-1.634,3.325-2.327,9.136-4.541,19.532-5.275,24.02a2.671,2.671,0,0,1-.169.594,6.568,6.568,0,0,1-5.45,3.807,7.33,7.33,0,0,0,.791.451,6.489,6.489,0,0,0,3.635.662c2.135-.269,3.2-.975,3.715-2.219.777-4.743,3.076-15.455,5.385-24.485C392.8,534.281,392.45,532.242,392.2,530.089Z" transform="translate(-68.159 -317.069)"/>
      <path id="Path_56" data-name="Path 56" class="cls-2" d="M488.623,491.413a12.018,12.018,0,0,1,.361,2.235c-.218,19.58-18.4,36.474-33,50.045l-1.778,1.657c3.171,11.291-1.844,22.12-13.39,28.576a27.193,27.193,0,0,1-10.864,3.6c3.763,2.25,9.734.555,14.734-2.221,10.081-5.639,15.624-15.694,11.62-27.037,14.188-13.29,34.945-31.143,35.17-50.715A9.277,9.277,0,0,0,488.623,491.413Z" transform="translate(-52.903 -328.804)"/>
      <path id="Path_57" data-name="Path 57" class="cls-2" d="M420.088,552.982a4.207,4.207,0,0,1,2.8-3.07c.08-.027.162-.055.244-.074a22.585,22.585,0,0,0,3.407-1.215c1.882-2.586,3.724-5.368,5.483-8.264,2.706-4.438,5.228-9.093,7.454-13.527.915-1.813,1.762-3.561,2.573-5.266-.61-1.526-1.208-3.066-1.769-4.627-8.373,18.1-22.29,43.151-35.758,44.755-.219.025-.429.023-.644.038a9.334,9.334,0,0,0,5.507,1.017c3.605-.429,7.363-2.994,11.07-6.795A4.972,4.972,0,0,1,420.088,552.982Z" transform="translate(-60.816 -321.058)"/>
      <path id="Path_58" data-name="Path 58" class="cls-2" d="M586.089,491.948q2.262-7.394,4.446-14.927c-32.37,57.045-58.628,86.739-80.008,90.58a27.11,27.11,0,0,1-4.807.445c-.405,0-.825-.014-1.253-.036a21.181,21.181,0,0,0,10.766.671C537.946,564.6,564.5,528.214,586.089,491.948Z" transform="translate(-30.294 -333.17)"/>
      <path id="Path_59" data-name="Path 59" class="cls-2" d="M649.514,504.989c-7.672,11.264-14.759,17.543-21.11,18.692-.227.041-.438.034-.661.061.02.012.035.029.055.04s.036.029.056.04.038.029.059.042.036.029.056.041.036.029.057.042.036.029.057.04.036.029.056.042a7,7,0,0,0,4.969.731c6.156-1.113,12.785-8.037,18.922-16.929A9.366,9.366,0,0,1,649.514,504.989Z" transform="translate(7.11 -324.684)"/>
      <path id="Path_60" data-name="Path 60" class="cls-2" d="M802.929,475.15c-3.509,4.978-7.568,10.206-12.518,16.147-9.64,38.717-20.031,73.647-40.483,77.331a15.677,15.677,0,0,1-2.761.254,10.186,10.186,0,0,0,1.306.43,12.52,12.52,0,0,0,6.159.394c19.238-3.463,29.4-39.333,38.5-75.928,3.715-4.443,7.05-8.639,10.12-12.788C803.063,479.134,802.946,477.2,802.929,475.15Z" transform="translate(43.345 -333.738)"/>
      <path id="Path_61" data-name="Path 61" class="cls-2" d="M894.957,412.285c-.061-.58-.143-1.161-.225-1.741a46.665,46.665,0,0,0-2.56-9.48,43.93,43.93,0,0,0-4.2-8.227,48.894,48.894,0,0,1,4.235,13.558c.093.645.178,1.26.244,1.873,2.2,18.686-4.782,36.616-10.23,48.477a207.566,207.566,0,0,1-19.386,33.278,159.374,159.374,0,0,1-24.212,27.56c-6.384,5.6-15,12.261-25.039,14.065a27.794,27.794,0,0,1-4.928.486c-.265,0-.515-.023-.773-.034a25.946,25.946,0,0,0,2.914.794,20.355,20.355,0,0,0,7.493-.167c8.992-1.616,17-7.526,23.734-13.436a157.563,157.563,0,0,0,23.8-27.1,204.349,204.349,0,0,0,19.136-32.842C891.672,444.733,896.887,428.645,894.957,412.285Z" transform="translate(61.768 -358.713)"/>
      <path id="Path_62" data-name="Path 62" class="cls-2" d="M289.961,555.616a98.025,98.025,0,0,1,3.306-14.057l.309-1c4.91-15.536,13.065-31.617,19.091-38.289a17.549,17.549,0,0,0-1.018-3.983c-3.853,2.327-14.158,18.694-20.687,39.352l-.3.985a94.589,94.589,0,0,0-3.213,13.655c-.06.366-.094.682-.129,1a44.5,44.5,0,0,0-.461,6.578,34.216,34.216,0,0,0,3.041-3.717C289.915,555.966,289.932,555.792,289.961,555.616Z" transform="translate(-96.324 -326.717)"/>
      <path id="Path_63" data-name="Path 63" class="cls-2" d="M668.039,481.844c2.247-7.989,4.893-16.367,7.622-24.745,1.8-5.533,3.243-9.949,3.965-12.725a8.01,8.01,0,0,0-1.234-.078c-.218,0-.432,0-.637.012-1,3.582-2.2,6.949-3.459,10.483-.392,1.1-.79,2.212-1.187,3.354-.729,2.006-1.649,4.468-2.7,7.28-5.562,14.894-18.584,49.772-16.49,57.315a2.639,2.639,0,0,1,.1.721,3.544,3.544,0,0,0,.1.682,3.5,3.5,0,0,1-.365,2.8,2.933,2.933,0,0,1-1.775,1.2,7.016,7.016,0,0,0,2.374.936,3.124,3.124,0,0,0,2.156.207c.533-.1,0-.89,0-2.093C654.692,520.649,661.672,499.449,668.039,481.844Z" transform="translate(14.463 -343.1)"/>
      <path id="Path_64" data-name="Path 64" class="cls-2" d="M694.909,494.646c-8.625,13.669-16.593,21.237-23.743,22.532a17.737,17.737,0,0,1-1.923.227,9.4,9.4,0,0,0,6.625.852c6.455-1.169,13.385-8.574,19.726-17.958A36.851,36.851,0,0,1,694.909,494.646Z" transform="translate(19.702 -327.823)"/>
      <path id="Path_65" data-name="Path 65" class="cls-2" d="M722.267,485.914c-6.206,11.937-14.778,25.8-23.562,27.381-.138.025-.267.018-.4.038a6.284,6.284,0,0,0,5.111,1.043c6.637-1.191,13.664-11.432,19.248-21.512A53.806,53.806,0,0,1,722.267,485.914Z" transform="translate(28.518 -330.472)"/>
      <path id="Path_66" data-name="Path 66" class="cls-2" d="M750.959,490.3a24.45,24.45,0,0,1-1.185-4.858c-8.285,12.775-15.9,19.852-22.706,21.072-.224.04-.434.031-.655.06a.514.514,0,0,0,.055.039c.019.012.036.03.056.042s.038.029.057.04a.581.581,0,0,0,.057.04c.02.013.036.03.056.042s.038.03.057.04.036.03.057.042a6.971,6.971,0,0,0,4.967.734C738.009,506.477,744.744,499.377,750.959,490.3Z" transform="translate(37.048 -330.615)"/>
      <path id="Path_67" data-name="Path 67" class="cls-2" d="M239.354,557.462c-.016.022-.03.044-.047.066,6.856-5.9,13.836-11.194,19.331-15.1C251.833,545.305,242.449,553,239.354,557.462Z" transform="translate(-110.749 -313.324)"/>
      <path id="Path_68" data-name="Path 68" class="cls-2" d="M145.563,615.69c-4.683-11.819-2.113-31.865,5.07-51.1-1.081-.424-2.147-.877-3.186-1.4-7.823,21.65-9,42.029-2.841,51.227A13.642,13.642,0,0,0,145.563,615.69Z" transform="translate(-140.676 -307.022)"/>
      <path id="Path_69" data-name="Path 69" class="cls-2" d="M347.811,531.622c1.939-6.6,4.254-13.572,6.7-20.7,1.735-5.06,3.243-9.454,3.975-12.238a9.09,9.09,0,0,0-1.972-.211c-.948,3.305-2.074,6.421-3.255,9.684-.4,1.122-.815,2.259-1.225,3.424-1.133,3.047-2.685,6.874-4.329,10.927-5.383,13.276-14.394,35.5-12.478,42.194a2.693,2.693,0,0,1,.1.692,3.374,3.374,0,0,0,.107.684,3.43,3.43,0,0,1-.4,2.9,2.893,2.893,0,0,1-1.421,1.051,7.861,7.861,0,0,0,2.091.872,3.09,3.09,0,0,0,2.136.331c.534-.062,0-.871-.021-2.053C335.935,562.6,342.071,545.973,347.811,531.622Z" transform="translate(-82.135 -326.66)"/>
      <path id="Path_70" data-name="Path 70" class="cls-2" d="M282.747,507.67c-3.436,3.951-6.006,7.087-9.25,11.048l-.156.19c-4.643,6.3-9.665,12.777-14.983,19.637l-1.238,1.6h.063a23.047,23.047,0,0,1,4.284.409c5.3-6.837,10.309-13.3,14.974-19.626,3.346-4.085,5.994-7.319,9.567-11.424,3.12-2.758,3-4.81,1.539-8.376a18.132,18.132,0,0,0-2.469-4.143C286.58,500.974,286.6,504.186,282.747,507.67Z" transform="translate(-105.345 -327.113)"/>
      <path id="Path_71" data-name="Path 71" class="cls-2" d="M314.462,493.619a23.373,23.373,0,0,1,.995,7.983,14.926,14.926,0,0,1,2.258-.451A13.38,13.38,0,0,0,314.462,493.619Z" transform="translate(-87.946 -328.134)"/>
      <path id="Path_72" data-name="Path 72" class="cls-2" d="M166.633,489.9c-14.42,20.369-22.231,43.032-20.778,59.452.766-.88,1.571-1.757,2.4-2.625,1.492-35.628,37.183-86.1,67.8-89.759a21.069,21.069,0,0,1,4.754.1c-.418-.134-.8-.3-1.242-.418l-1.159-.184a37.487,37.487,0,0,0-5.755-.626,12.573,12.573,0,0,0-1.476.079C197.165,457.59,180.509,470.3,166.633,489.9Z" transform="translate(-139.157 -339.598)"/>
      <path id="Path_73" data-name="Path 73" class="cls-2" d="M251.018,514.13c-.577,0-1.128-.022-1.645-.059-4.548,20.006-8.371,24.945-10.713,26.256l.009.008c.01.008.018.009.029.017s.017.017.027.024l.03.017c.009.008.017.017.027.025l.029.017c.01.008.018.017.029.024a.328.328,0,0,0,.029.017c.01.008.018.018.027.025a.21.21,0,0,1,.03.017c.009.008.018.017.027.023l.029.017c.01.008.018.017.029.025l.029.016c.01.008.018.017.027.025s.02.01.03.017.017.017.027.025a.225.225,0,0,1,.029.017l.029.023.029.017c.01.008.018.017.029.025s.018.009.027.016.018.017.029.025.02.01.03.017.017.017.027.025l.029.017c.01.007.018.016.029.023s.018.009.029.017.018.017.027.025a.21.21,0,0,1,.03.017c.01.006.017.016.027.023s.02.009.029.017l.016.013c.9-1.3,1.8-2.579,2.719-3.9,2.272-3.268,4.658-6.685,7.108-10.133,1.491-5.113,2.616-10.063,3.06-12.112a21.255,21.255,0,0,0,5.7.211c.6-.787,1.194-1.587,1.8-2.366a43.082,43.082,0,0,1-6.361,1.288A20.97,20.97,0,0,1,251.018,514.13Z" transform="translate(-110.946 -322.349)"/>
      <path id="Path_74" data-name="Path 74" class="cls-2" d="M254.437,568.139c2.311-3.094,4.454-6.238,6.3-9.266-18.651,13.473-30.224,26.754-31.53,32.224a24.877,24.877,0,0,0,5.671-2.97C238.743,582.483,245.761,575.33,254.437,568.139Z" transform="translate(-113.814 -308.335)"/>
      <path id="Path_75" data-name="Path 75" class="cls-2" d="M283.906,553.264a126.92,126.92,0,0,1-6.866,16.127c-7.558,13.376-25.023,36.33-43.025,38.467a18.782,18.782,0,0,1-2.371.142c-.166,0-.322-.026-.485-.03a15.782,15.782,0,0,0,5.669,1.067,16.239,16.239,0,0,0,2.053-.125c16.938-2.011,34.164-25.026,40.918-36.968,1.676-3.448,3.617-7.586,5.138-11.392A35.839,35.839,0,0,1,283.906,553.264Z" transform="translate(-113.222 -310.037)"/>
      <path id="Path_76" data-name="Path 76" class="cls-2" d="M304.8,546.5c-8.943,16.543-16.426,24.713-23.43,25.629a6.719,6.719,0,0,0,4.754,1.075c6.628-.794,13.578-10.405,19.079-19.937A53.525,53.525,0,0,1,304.8,546.5Z" transform="translate(-97.987 -312.088)"/>
      <path id="Path_77" data-name="Path 77" class="cls-2" d="M330.7,549.436c-7.564,10.588-14.646,16.352-21.066,17.122-.065.008-.124.005-.188.01l.017.013c.021.013.038.029.057.04a7.378,7.378,0,0,0,4.976.989c6.1-.731,12.642-7.022,18.66-15.284A10.044,10.044,0,0,1,330.7,549.436Z" transform="translate(-89.468 -311.198)"/>
      <path id="Path_78" data-name="Path 78" class="cls-2" d="M171.671,572.245c12.667-1.513,23.9-8.832,27.9-20.547a.87.87,0,0,1-.085.029c.009-.023.02-.046.027-.069-.029.012-.055.018-.083.029.008-.025.018-.046.027-.07-.03.013-.056.018-.085.029.008-.024.018-.046.027-.068-.029.01-.055.017-.083.027.008-.023.018-.046.026-.069-.029.012-.055.017-.083.027.008-.022.018-.046.027-.068-.029.01-.056.017-.085.028.008-.023.02-.046.027-.069-.029.01-.056.017-.085.029.009-.024.02-.046.027-.069-.029.01-.055.017-.085.027.009-.023.02-.046.027-.069-.029.012-.055.017-.083.029.008-.023.018-.046.027-.069-.03.01-.056.017-.085.029.009-.025.02-.047.027-.07-.029.01-.055.017-.083.029.008-.023.018-.046.026-.069-.029.01-.055.017-.083.029.008-.025.018-.046.027-.07-.03.012-.056.017-.085.029.008-.023.02-.046.027-.069-.029.01-.056.017-.083.029.008-.025.018-.046.026-.07-.029.012-.055.017-.083.029.008-.023.018-.046.026-.069-.029.01-.055.017-.083.029.008-.025.02-.046.027-.07-.029.013-.056.017-.085.029.009-.023.02-.046.027-.069-.029.012-.055.017-.083.029.008-.025.018-.046.026-.07-.029.012-.055.017-.083.029.008-.023.018-.046.027-.069-.03.012-.056.017-.085.029.008-.025.02-.045.027-.07-.029.012-.056.017-.083.029.008-.023.018-.046.026-.069-.029.012-.055.018-.083.029.008-.025.018-.047.026-.07-.027.012-.055.018-.083.029.008-.023.02-.046.027-.069-.029.012-.055.018-.085.029.009-.025.02-.046.027-.069-.029.011-.055.017-.083.028.008-.023.018-.046.026-.069-.029.012-.055.018-.083.029.008-.023.018-.047.027-.069-.029.01-.056.017-.085.027.008-.023.02-.046.027-.069-.029.012-.055.018-.083.029.008-.023.018-.046.026-.069-.029.01-.055.017-.083.027.008-.023.018-.046.027-.068-.029.011-.056.017-.085.028.009-.023.02-.046.027-.069-.029.01-.055.017-.085.029.009-.023.02-.047.027-.07-.029.012-.055.018-.083.029.008-.024.018-.046.026-.069-.029.01-.055.017-.083.029.009-.023.02-.046.027-.069-.029.01-.055.016-.085.027.009-.023.02-.046.027-.069-.029.01-.055.017-.083.029.008-.023.018-.046.027-.07-.03.012-.056.018-.085.029.008-.023.018-.046.027-.069-.029.01-.056.017-.085.029.008-.024.02-.046.027-.069-.029.012-.055.016-.083.029.008-.025.018-.047.026-.07-.029.012-.055.017-.083.029.008-.023.02-.046.027-.07-.029.013-.056.018-.085.029.009-.023.02-.046.027-.069-.029.012-.055.017-.085.029.009-.023.02-.046.027-.069-.029.012-.055.016-.083.029.008-.025.018-.047.027-.07-.03.012-.056.018-.085.029.008-.023.02-.046.027-.07-.029.013-.056.018-.085.03.009-.025.02-.047.027-.07-.029.012-.055.018-.083.029.008-.023.018-.046.026-.069-.027.012-.055.017-.083.027.008-.023.02-.046.027-.069-.029.012-.056.018-.085.029.009-.023.02-.046.027-.069-.029.012-.055.017-.083.027.008-.022.018-.046.026-.069-.029.012-.055.018-.083.029.008-.023.018-.046.026-.069-.027.012-.055.017-.083.027.008-.022.02-.046.027-.068-.029.011-.055.017-.083.028.008-.023.018-.046.026-.069l-.03.009c-4.344,11.645-15.681,19.884-29.83,21.574a47.24,47.24,0,0,1-5.571.333,44.536,44.536,0,0,1-5.216-.308A41.573,41.573,0,0,0,171.671,572.245Z" transform="translate(-136.02 -311.146)"/>
      <path id="Path_79" data-name="Path 79" class="cls-2" d="M185.357,523.576a2.7,2.7,0,0,1-1.889,1.515c-9.417,2.009-19.141,10.639-28.918,25.662a32.251,32.251,0,0,0,3.347,1.632c8.764-13.3,18.988-23.808,30.191-26.2a22.054,22.054,0,0,0-2.5-3.668A2.683,2.683,0,0,1,185.357,523.576Z" transform="translate(-136.466 -319.366)"/>
      <path id="Path_80" data-name="Path 80" class="cls-2" d="M251.13,458.406c6.405,12.162,9.159,28.789,7.886,49.314-4.316,69.59-52.811,163-101.16,168.769a37.348,37.348,0,0,1-4.484.271h0a36.305,36.305,0,0,1-4.055-.245,34.219,34.219,0,0,0,13.406,1.028c46.219-5.51,93.5-96.565,98.627-163.923C263.11,491.251,260.214,471.529,251.13,458.406Z" transform="translate(-138.055 -338.819)"/>
    </g>
    <path id="Path_81" data-name="Path 81" class="cls-1" d="M230.3,468.335a50.736,50.736,0,0,0-16.774-.622c-42.726,5.1-81.223,66.182-82.926,109.411-.246,12.379,2.238,22.186,6.405,29.919C121.9,641.4,118.161,684.111,142.9,698.376a34.242,34.242,0,0,0,21.6,4.519C234.923,694.5,307.808,487.513,230.3,468.335Zm-68.7,214.719-2.731.312c-20.551-.54-20.121-32.759-8.746-62.554l1.026-.125a39.323,39.323,0,0,0,24.331,4.583c12.667-1.515,23.9-8.833,27.9-20.547a28.578,28.578,0,0,1-7.514,1.658c-16.753,1.99-28.416-.725-36.32-6.137l-.021-.374c9.137-14.555,19.978-26.33,31.926-28.881-3.47-6.324-7.925-8.771-13.058-8.17-9.239,1.1-20.1,10.637-27.225,19.718l-1.354.519c-7.823-34.979,32.726-97.429,66.911-101.513,3.079-.352,6.508.352,9.239.768C281.528,496.263,210.49,677.208,161.605,683.053ZM523.55,498.793c4.593-.929,7.811,2.643,8.316,6.795a9.522,9.522,0,0,1,.033,1.956c-.476,5.446-3.163,10.459-6.687,14.523-1.051,1.211-2.233,2.29-3.324,3.459-.972,1.044-2.1,2.354-3.595,2.542-.985.125-1.642-.85-1.335-3.026,2.895-2.466,6.118-5.307,7.371-9.723-3.88.477-7.145-2.323-7.495-6.531A8.826,8.826,0,0,1,523.55,498.793Zm43.34,25.337a3.6,3.6,0,0,0-3.1,3.42c.369,1.245,2.792.394,3.737,1.286,2.731,3.192-2.3,11.03-4.455,15.384-8.932,15.571-10.307,16.753-22.5,29.877-2.486-7.982-5.975-16.173-7.145-24.4.472-16.96,21.7-27.784,21.7-27.784-7.495-9.1-19.936-.5-19.936-.5a28.865,28.865,0,0,0-10.882,15.508,32.615,32.615,0,0,0-.739,12,7.066,7.066,0,0,0,.124,1.141,2.021,2.021,0,0,0-.678.665,4.49,4.49,0,0,0-.8,1.637c-5.255,13.208-16.075,32.344-29.708,33.983-8.829,1.036-16.118-6.864-15.194-24.238,1.048-3.627,17.9-36.076,31.269-37.673,3.758-.456.206-9.1-5.974-10.989a9.414,9.414,0,0,0-2.937-.228c-5.626.663-14.125,9-29.38,40.66a473.078,473.078,0,0,1,21.435-62.264c11.19-6.3,20.49-14.141,25.5-22.932l.534-.932c3.674-7.174,4.7-13.726,2.5-21.087-1.663-5.06-6.754-7.381-11.579-6.8-12.565,1.494-26.731,36.533-31.454,47.646a115.765,115.765,0,0,1-26.177,6.034c-16.569,1.99-32.645.1-41.556-7.9-7.822-6.677-7.35-15.219-.739-24.218a1.492,1.492,0,0,0-1.354-2.467c-1.6.186-3.471,1.306-6.118,4.54-16.385,25.069-1.294,37.611,11.866,42.485,7.781,2.57,18.5,3.047,29.73,1.721a141.594,141.594,0,0,0,25.643-5.992c1.333-.457,7.986-3.3,8.007-3.007-.267.623-5.051,4.1-5.051,4.707-6.16,17.169-14.31,40.7-19.443,62.388l-.021.021c-.308,1.264-.6,2.509-.862,3.753-.534.974-1.088,1.971-1.684,2.965-5.934,10.1-13.92,20.692-20.327,21.667-15.767,2.156,9.4-49.2,7.166-59.175-1.663-6.821-13.428-5.722-18.5-5.12,2.546-14.059,1.169-19.159-3.634-18.578a8.284,8.284,0,0,0-3.471,1c-11.477,5.762-21.475,24.506,2.074,24.921-4.845,15.819-14.392,30.126-20.326,44.059-.964,1.637-1.971,3.274-3.017,4.893-5.257,8.045-11.333,15.094-16.447,15.861-11.209,1.637-.082-41.82,10.821-51.627,2.135-2.592-3-7.526-8.623-6.864a11.143,11.143,0,0,0-5.851,2.448c2.525-14.929-4.743-20.2-11.683-19.366a16.822,16.822,0,0,0-5.072,1.472c-13,7.506-24.76,32.262-30.53,54.9-.246.1-.493.229-.759.353-3.594,1.679-7.31,3.65-11.046,5.847-3.634-4.127-9.63-6.2-15.932-5.452a35.707,35.707,0,0,0-3.676.684c1.766-2.281,3.531-4.542,5.255-6.78,5.319-6.863,10.348-13.354,15.03-19.7,3.346-4.085,6-7.319,9.567-11.424,3.12-2.758,3-4.81,1.541-8.377-1.623-3.545-3.758-7.3-8.87-6.675a.537.537,0,0,0-.246.061c-3.1,1.181-13.961,5.121-23.529,6.262a49.262,49.262,0,0,1-6.487.519c-3.983-.249-5.236-2.093-6.078-3.3-.451-.684-.965-1.41-1.91-1.328-1.354.167-1.929,1.929-2.752,5.847-.082.456-.163.81-.2.975a.821.821,0,0,0-.04.31c.02,3.442.287,7.381,2.011,10.658a6.246,6.246,0,0,0,1.129,2.2,1.246,1.246,0,0,1,.145.207c-.555,6.013-3.962,16.835-7.124,24.921a3.574,3.574,0,0,0,1.129,4.5.811.811,0,0,0,.6.206,1.9,1.9,0,0,0,.924.167c4.579-.54,9.546-22.144,10.614-27.058a20.888,20.888,0,0,0,6.017.186c4.969-.58,10.06-2.446,14.146-3.939.184-.062.348-.145.533-.208-8.315,9.7-16.014,20.756-23.467,31.475-3.141,4.519-6.406,9.2-9.588,13.622a4.041,4.041,0,0,0-1.375,1.12c-3.1,3.234-1.068,9.309,1.026,11.383,1.109,1.1,2.114.871,2.772.206,4.065-5.867,17.348-16.358,24.842-17.249,2.156-.27,3.532.249,4.435,1.7-13.941,9.082-43.2,31.682-49.788,47.5-1.766,4.188-2.4,10.014.123,13.415,2.526,5.412,7.761,7.3,12.422,7.3a16.215,16.215,0,0,0,2.053-.125c16.938-2.011,34.164-25.027,40.918-36.969,3.326-6.842,7.741-16.441,7.72-20.672-.021-1.161-.021-2.259-1.459-2.611l-.308-.125c2.218-1.14,4.415-2.2,6.55-3.171-1.827,15.425.493,26.807,9.055,25.792,8.294-1,17.1-15.8,22.934-26.976.82-1.555,1.56-3.047,2.258-4.416.9-1.783,1.684-3.38,2.341-4.665-2.28,17.23-1.067,32.595,9.363,31.35,7.1-.851,14.8-9.227,21.578-19.49.328-.477.657-.975.966-1.452-.063,4.292,1.949,7.776,5.993,8.771a3.093,3.093,0,0,0,2.136.332c.534-.063,0-.872-.021-2.053-2.752-9.621,11.621-40.68,16.856-54.758,1.827-5.184,3.655-9.807,4.969-14.928,1.335.124,7.741-.643,6.714,3.3-3.9,15.384-31.126,77.233-3.839,73.978,9.054-1.078,18.949-14.1,26.833-27.782.472-.789.924-1.6,1.356-2.406-.145.933-.267,1.867-.37,2.778a103.228,103.228,0,0,0-.924,10.741c-.184,10.262,5.194,12.854,8.665,12.44,2.135-.27,3.2-.975,3.716-2.218.779-4.769,3.1-15.571,5.42-24.632.8-.974,6.3-13.913,6.3-13.913-.349,21.688,6.488,37.84,17.184,36.575,13.428-1.6,28.991-32.469,36.033-48.538.163-.395.328-.768.472-1.12.143.517.287,1.057.451,1.576,2.32,8.045,6.139,15.758,8.747,22.931-8.049,7.651-17.083,16.235-26.094,18.578-2.218.808-.658,3.338.677,4.624a3.708,3.708,0,0,0,4.516.766c.267,12.17,10.573,10.346,18.417,5.992,10.081-5.639,15.624-15.7,11.62-27.037,14.188-13.29,34.945-31.143,35.17-50.715A9.72,9.72,0,0,0,566.89,524.13Zm-68.328-47.647c1.827-3.733,14.209-27.453,17.432-27.846.267-.02.267.27.533,1.12,2.259,12.607-9.177,22.165-17.965,27.6l-.8.684Zm-239.948,177.4a2.7,2.7,0,0,1-1.026-2.22c-.082-7.692,18.621-26.435,40.775-40.906.308-.167.615-.353.923-.54C293.088,624.916,272.535,651.787,258.615,653.882Zm101.753-89.218c-2.853,5.661-6.118,11.922-9.4,17.77-1.766,3.15-3.531,6.178-5.215,8.935-4.7,7.672-8.891,13.27-11.272,13.54-1.068.125-1.6-.975-1.621-3.608a46.157,46.157,0,0,1,.472-7.111c.042-.374.082-.747.143-1.12a98.092,98.092,0,0,1,3.305-14.059c.1-.33.206-.662.309-.994,6.3-19.945,17.964-40.824,23.589-41.488,3.49-.415,4.128,12.958,4.147,15.591A58.17,58.17,0,0,0,360.368,564.664Zm175.254,29.214c-3.962,5.95-11.559,8.875-17.759,8.875,6.344-3.3,12.771-8.316,18.95-13.5A8,8,0,0,1,535.621,593.877ZM740.858,466.114c-.658-6.531-8.931-7.257-13.88-6.366a13.171,13.171,0,0,0-9.259,6.1c-10.923,17.479-27.122,45.531-43.67,69.562-16.856,24.818-33.732,45.219-46.626,47.542-6.283,1.12-12.565-2.178-12.565-17.334,0-17.352,8.582-45.883,14.207-59.837,19.854-11.32,98.571-70.91,98.571-124.858,0-19.593-11.253-22.745-17.862-21.564-32.42,5.826-77.054,78.519-97.893,131.785a59,59,0,0,1-7.946,1.8c-6.939,1.243-32.747,2.55-32.747-19.262a16.829,16.829,0,0,1,1.663-6.946,2.2,2.2,0,0,0,.328-1.534,7.09,7.09,0,0,0,.657-3.068,1.269,1.269,0,0,0-1.644-1.182c-4.967.891-11.907,21.357-11.907,32.054,0,29.567,25.13,28.386,34.389,26.727a40.342,40.342,0,0,0,8.6-2.281,165.558,165.558,0,0,0-5.954,42.442c0,34,13.879,42.235,27.45,39.788,29.77-5.349,66.151-66.2,89.291-109.537-11.909,44.641-41.33,141.2-63.5,145.177a11.246,11.246,0,0,1-3.635-.082l-.328.435a16.217,16.217,0,0,0,18.849,16.192c5.3-.953,10.593-4.479,14.884-11.174,21.5-31.205,47.961-126.871,60.2-173.769ZM710.1,379.259c2.977-.538,6.611,1.389,6.611,8.792,0,36.948-59.192,79.742-75.412,90.047C656.186,446.955,691.91,382.536,710.1,379.259Zm386.458,38.482c-.063-.58-.145-1.161-.227-1.741a44.182,44.182,0,0,0-14.043-26.311c-7.6-6.634-16.487-10.472-25.151-12.751a100.791,100.791,0,0,0-13.017-2.53l-3.264-.394q-1.756-.156-3.449-.249c-2.28-.1-4.518-.124-6.694-.063a186.677,186.677,0,0,0-25.273,2.655c-8.192,1.346-16.22,2.985-24.207,4.747-15.953,3.545-31.659,7.609-47.3,11.736-31.269,8.189-62.189,17.251-93.4,24.238-15.584,3.42-31.249,6.572-46.811,7.939-7.741.623-15.543.83-22.729-.352a29.382,29.382,0,0,1-9.67-3.152,11.426,11.426,0,0,1-5.461-6.323s-9.793,16.234,15.727,20.631a.7.7,0,0,1,.227.042c.615.1,1.211.185,1.807.268.411.061.841.1,1.293.166.493.063,1.006.1,1.52.167h.02a125.211,125.211,0,0,0,18.005.373c16.63-.789,32.789-3.4,48.783-6.448,15.993-3.068,31.823-6.636,47.571-10.326,15.747-3.67,31.433-7.526,47.057-11.342,15.645-3.753,31.269-7.442,46.872-10.552,7.8-1.555,15.6-2.965,23.365-4.064a171.735,171.735,0,0,1,22.85-1.949c1.827,0,3.634.042,5.379.166.882.063,1.745.145,2.566.249l2.752.353a80.8,80.8,0,0,1,10.7,2.155c6.857,1.868,13.161,4.665,17.841,8.709,10.081,8.438,11.066,21.521,7.823,33.443-3.82,13.953-10.246,27.327-17.453,39.809-.02.021-.02.042-.04.061-13.365,23.617-31,45.905-42.5,47.979a5.205,5.205,0,0,1-4.292-.726c-7.74-2.778-5.07-28.965-1.333-45.179,16.856-3.027,29.421-28.571,33.158-45.385,1.6-7.465,2.669-16.317-5.337-17.562a11.98,11.98,0,0,0-2.958-.061c-17.9,3.213-35.56,47.915-39.564,64.461-.472,2.074-.882,4.084-1.272,6.054a162.762,162.762,0,0,1-12.093,19.053,69.811,69.811,0,0,1-5.625,6.7c6.693-29.3,12.832-57,21.66-65.746.534-.684-3.737-4.707-8.561-3.836-1.869.331-3.737,1.555-5.6,4,1.6-13.436-4.806-17.375-11.232-16.213a22.806,22.806,0,0,0-5.891,1.949c-15.009,9.619-28.847,42.836-33.384,68.317-5.769,9.911-12.914,19.593-18.745,20.817-11.232,2.323.267-42.774,11.23-53.41,2.135-2.758-2.935-7.527-8.562-6.531a11.876,11.876,0,0,0-5.872,2.862c2.669-15.426-4.557-20.4-11.5-19.159a17.374,17.374,0,0,0-5.091,1.823c-13.94,9.02-26.69,38.151-32.111,62.825-6.036,10.678-14.125,22.06-20.551,23.408-15.79,3.131,11.763-60.065,9.628-70.142-1.621-6.883-13.386-5.059-18.458-4.148,2.669-14.534,1.335-19.675-3.47-18.8a8.719,8.719,0,0,0-3.49,1.223c-11.5,6.552-21.66,26.291,1.869,25.358-5.236,17.333-16.835,38.9-23.3,56.644-5.79,10.036-13.038,19.925-18.931,21.149-11.23,2.321.269-42.774,11.232-53.391,2.135-2.778-2.937-7.547-8.562-6.53a11.83,11.83,0,0,0-5.872,2.84c2.669-15.426-4.558-20.4-11.5-19.137a17.055,17.055,0,0,0-5.091,1.8c-26.2,16.961-48.126,104.852-25.4,100.767,10.963-1.971,22.994-28.633,27.8-38.461-2.4,17.768-1.335,33.4,9.1,31.536,7.453-1.349,15.6-11.2,22.728-22.766-.1,4.394,1.827,7.878,5.872,8.667a3.125,3.125,0,0,0,2.156.207c.534-.1,0-.892,0-2.093-2.689-9.683,13.9-51.5,19.239-66.2,1.887-5.41,3.756-10.221,5.091-15.55,1.335.061,7.761-1.1,6.672,2.986-4,15.964-33.691,90.005-6.405,85.111,9.157-1.658,19.279-15.839,27.305-30.457-1.539,14.867.843,25.4,9.055,23.927,10.963-1.969,22.995-28.634,27.82-38.461-2.423,17.749-1.355,33.4,9.074,31.536,8.438-1.513,17.8-13.974,25.54-27.493-.533,11.921,2.177,19.821,9.485,18.5,11.232-2.013,24.064-30.314,28.888-40.432-1.068,4.666-5.892,22.558-12.031,40.991-12.832,14.265-25.952,28.571-32.357,39.581-7.228,11.755-5.893,25.254,3.47,27.451a12.5,12.5,0,0,0,6.159.394c19.238-3.463,29.4-39.332,38.5-75.927a211.653,211.653,0,0,0,18.17-24.59c-2.381,23.222,3.532,35.787,17.925,38.73a20.33,20.33,0,0,0,7.493-.165c8.992-1.616,17-7.526,23.734-13.436a157.622,157.622,0,0,0,23.8-27.1,204.346,204.346,0,0,0,19.135-32.842C1093.275,450.19,1098.49,434.1,1096.561,417.741ZM1037,426.657c2.689-.477-1.069,13.354-1.6,15.24a82.479,82.479,0,0,1-12.3,23.72c-2.136,3.359-4.806,6.531-8.562,7.214C1016.426,465.326,1029.526,428.006,1037,426.657ZM776.047,507.29c-8.828,18.019-21.393,41.8-26.218,42.671-1.068.186-1.6-.913-1.6-3.608-.266-22.351,20.327-66.391,28.355-67.842,3.47-.622,4,13.042,4,15.717A63.836,63.836,0,0,0,776.047,507.29Zm128.607-23.1c-8.828,18.018-21.393,41.8-26.2,42.649-1.068.207-1.621-.892-1.621-3.587-.267-22.372,20.326-66.39,28.353-67.84,3.47-.622,4,13.021,4,15.715A63.754,63.754,0,0,0,904.654,484.193Zm29.4,100.5a2.639,2.639,0,0,1-2.135-.829c-1.869-6.22,9.628-19.946,23.528-36.18C948.509,566.547,941.016,583.425,934.056,584.69Zm16.589-73.79c-1.335.227-2.135-.519-2.135-3.8,0-22.412,20.306-66.1,28.334-67.55l1.068-.186c2.4.766,3.489,11.32,3.489,19.386C972.306,477.724,955.983,509.924,950.644,510.9Z" transform="translate(0 6.506)"/>
    <g id="Group_5" data-name="Group 5" transform="translate(133.385 378.026)">
      <g id="Group_4" data-name="Group 4">
        <path id="Path_82" data-name="Path 82" class="cls-2" d="M238.252,460.023c3.59,18.468,4.072,37.478,2.624,56.256a218.689,218.689,0,0,1-11.855,55.193,215.359,215.359,0,0,1-11.611,25.814,193.537,193.537,0,0,1-15.354,23.761,191.735,191.735,0,0,1-40.505,39.1l5.431-4.489c1.808-1.5,3.672-2.926,5.364-4.555,3.454-3.178,6.977-6.272,10.171-9.711a188.759,188.759,0,0,0,18.262-21.3,215.816,215.816,0,0,0,14.968-23.7,214.571,214.571,0,0,0,11.328-25.628,224.551,224.551,0,0,0,12.22-54.629,239.342,239.342,0,0,0,1.146-28.07A199.365,199.365,0,0,0,238.252,460.023Z" transform="translate(-122.295 -340.91)"/>
        <path id="Path_83" data-name="Path 83" class="cls-2" d="M175.777,518.758q-5.971,6.284-11.294,13.107c-3.591,4.506-6.993,9.158-10.142,13.97-6.281,9.614-11.908,19.725-15.667,30.549a91.626,91.626,0,0,0-4.455,16.531,82.284,82.284,0,0,0-.959,17.057,67.635,67.635,0,0,0,3.277,16.787,76.549,76.549,0,0,0,7.373,15.568,70.368,70.368,0,0,1-8.331-15.227,68.416,68.416,0,0,1-3.909-17.008c-.972-11.68,1.133-23.451,5.055-34.409a134.941,134.941,0,0,1,16.3-30.74A160.97,160.97,0,0,1,175.777,518.758Z" transform="translate(-131.433 -323.089)"/>
        <path id="Path_84" data-name="Path 84" class="cls-2" d="M182.2,582.568a58.161,58.161,0,0,1-18.583-2.117,44.142,44.142,0,0,1-16.68-8.746,36.913,36.913,0,0,1-10.593-15.684,48.708,48.708,0,0,1-2.612-18.772c.781-12.708,5.272-24.767,11.014-35.854A156.278,156.278,0,0,1,166,470.6a181.688,181.688,0,0,0-10.693,15.3,164.637,164.637,0,0,0-9.137,16.213c-5.386,11.1-9.78,22.953-10.367,35.241a46.745,46.745,0,0,0,2.32,18.041,36.937,36.937,0,0,0,9.869,15.121,43.082,43.082,0,0,0,15.924,8.967A61.46,61.46,0,0,0,182.2,582.568Z" transform="translate(-130.76 -337.699)"/>
        <path id="Path_85" data-name="Path 85" class="cls-2" d="M240.549,499.7a22.738,22.738,0,0,0,15.829,5.507,23.839,23.839,0,0,0,4.19-.624,31.582,31.582,0,0,0,4.124-1.2c1.354-.494,2.66-1.141,4.028-1.681,1.311-.657,2.591-1.38,3.965-2-1.1,1.006-2.289,1.912-3.45,2.882-1.283.772-2.538,1.638-3.908,2.291a24.277,24.277,0,0,1-8.842,2.4,19.34,19.34,0,0,1-9.039-1.777A16.764,16.764,0,0,1,240.549,499.7Z" transform="translate(-98.325 -328.87)"/>
        <path id="Path_86" data-name="Path 86" class="cls-2" d="M275.223,505.774c-2.778,4.463-5.738,8.792-8.724,13.1-2.969,4.321-6.069,8.545-9.168,12.77-3.139,4.194-6.281,8.388-9.553,12.484l-4.914,6.14c-1.7,2-3.339,4.046-5.089,6.01,1.371-2.243,2.851-4.408,4.273-6.615l4.449-6.486c2.969-4.321,6.067-8.545,9.17-12.768,3.143-4.193,6.284-8.386,9.557-12.483C268.478,513.817,271.759,509.729,275.223,505.774Z" transform="translate(-99.167 -327.028)"/>
        <path id="Path_87" data-name="Path 87" class="cls-2" d="M273.178,556.521a82.155,82.155,0,0,1-6.561,13.822,80.023,80.023,0,0,1-8.93,12.514,50.535,50.535,0,0,1-11.72,10.056,33.078,33.078,0,0,1-7.045,3.229,25.762,25.762,0,0,1-7.6,1.126,30.278,30.278,0,0,0,7.248-2.082,32.278,32.278,0,0,0,6.53-3.616,61.859,61.859,0,0,0,11.027-10.082,117.908,117.908,0,0,0,9.141-11.989c1.425-2.084,2.772-4.224,4.071-6.4C270.695,560.957,271.933,558.746,273.178,556.521Z" transform="translate(-101.124 -311.631)"/>
        <path id="Path_88" data-name="Path 88" class="cls-2" d="M224.524,591.073c2.611-6.144,6.587-11.626,10.884-16.732a108.4,108.4,0,0,1,14.447-13.893A126.62,126.62,0,0,1,266.5,549.308c2.882-1.68,5.924-3.07,8.875-4.6,3.053-1.34,6.118-2.638,9.2-3.866-2.892,1.657-5.86,3.132-8.739,4.769-2.837,1.709-5.771,3.243-8.526,5.072s-5.593,3.511-8.235,5.49c-2.742,1.836-5.328,3.878-7.93,5.9A145.429,145.429,0,0,0,236.591,575.4a91.726,91.726,0,0,0-6.439,7.5A66.345,66.345,0,0,0,224.524,591.073Z" transform="translate(-103.188 -316.389)"/>
        <g id="Group_3" data-name="Group 3" transform="translate(193.264 144.06)">
          <path id="Path_89" data-name="Path 89" class="cls-2" d="M309.208,492.235a82.011,82.011,0,0,0-13.952,17.979,103.626,103.626,0,0,0-9.2,20.719c-.577,1.8-1.014,3.647-1.53,5.469-.241.915-.512,1.822-.73,2.744l-.53,2.792c-.352,1.861-.766,3.715-1.067,5.586l-.683,5.653-.357,2.83-.125,2.848-.257,5.709c-.108,3.809.15,7.621.113,11.462-.432-3.8-.893-7.617-1.13-11.451l-.035-5.768-.016-2.888.218-2.881.472-5.765c.258-1.911.63-3.807.94-5.713l.506-2.852c.214-.942.481-1.872.719-2.806.51-1.864.938-3.751,1.517-5.6A88.553,88.553,0,0,1,293.9,509.38a82.956,82.956,0,0,1,6.913-9.261A59.026,59.026,0,0,1,309.208,492.235Z" transform="translate(-279.708 -475.197)"/>
          <path id="Path_90" data-name="Path 90" class="cls-2" d="M315.394,512c-.855,2.31-1.728,4.6-2.491,6.928-.82,2.306-1.591,4.625-2.284,6.964a121.591,121.591,0,0,0-3.472,14.145,46.727,46.727,0,0,0-.584,14.321,16.783,16.783,0,0,0,7.023,12.024,14.22,14.22,0,0,1-5.7-4.751,19.981,19.981,0,0,1-2.89-6.985c-1.1-4.971-.671-10.064.109-14.962a79.769,79.769,0,0,1,4.012-14.3A87.347,87.347,0,0,1,315.394,512Z" transform="translate(-272.237 -469.2)"/>
          <path id="Path_91" data-name="Path 91" class="cls-2" d="M340.157,520.245c-2.316,5.917-4.737,11.694-6.7,17.607a67.153,67.153,0,0,0-2.436,8.96c-.533,3.019-.955,6.139-.1,9.223-1.634-2.8-1.807-6.266-1.505-9.439a41.65,41.65,0,0,1,2.074-9.4A64.028,64.028,0,0,1,340.157,520.245Z" transform="translate(-264.663 -466.698)"/>
          <path id="Path_92" data-name="Path 92" class="cls-2" d="M340.229,496.2a8.01,8.01,0,0,1-2.533-5.283,8.8,8.8,0,0,1,1.717-5.868,13.77,13.77,0,0,1,2.056-2.237,21.592,21.592,0,0,1,2.446-1.672,25.941,25.941,0,0,1,2.649-1.21c.928-.287,1.846-.573,2.787-.769-.76.619-1.542,1.144-2.314,1.671s-1.472,1.138-2.224,1.653a18.922,18.922,0,0,0-3.709,3.762,8.993,8.993,0,0,0-1.795,4.653A11.66,11.66,0,0,0,340.229,496.2Z" transform="translate(-262.124 -479.163)"/>
          <path id="Path_93" data-name="Path 93" class="cls-2" d="M359.745,501.1,355.925,518c-1.224,5.635-2.495,11.25-3.569,16.9-1.1,5.637-2.066,11.306-2.606,16.993a36.112,36.112,0,0,0,.034,8.489,8.1,8.1,0,0,0,1.371,3.855,3.7,3.7,0,0,0,3.769,1.167,4.984,4.984,0,0,1-2.175.254,3.513,3.513,0,0,1-2-1.053,8.811,8.811,0,0,1-1.96-4.028,36.6,36.6,0,0,1-.628-8.777,112.134,112.134,0,0,1,2.162-17.3c1.135-5.688,2.466-11.328,4.064-16.892C355.967,512.046,357.681,506.515,359.745,501.1Z" transform="translate(-258.944 -472.505)"/>
        </g>
        <path id="Path_94" data-name="Path 94" class="cls-2" d="M336.186,447.418c-.461,6.76,1.706,13.722,6.479,18.269,4.743,4.617,11.366,6.685,17.922,7.585a91.7,91.7,0,0,0,20.133-.064c1.689-.117,3.364-.369,5.046-.585,1.684-.2,3.359-.465,5.031-.759,3.373-.444,6.691-1.183,10.064-1.728a131.206,131.206,0,0,1-19.945,4.656,76.892,76.892,0,0,1-20.6.534,43.04,43.04,0,0,1-10.1-2.637,24.639,24.639,0,0,1-8.683-5.894,21.35,21.35,0,0,1-5.026-9.128A23.387,23.387,0,0,1,336.186,447.418Z" transform="translate(-69.437 -344.735)"/>
        <path id="Path_95" data-name="Path 95" class="cls-2" d="M378.771,576.316a382.029,382.029,0,0,1,6.507-39.826,369.137,369.137,0,0,1,10.794-38.934A318.212,318.212,0,0,1,411.6,460.249c3.023-6.023,6.172-11.972,9.584-17.788l2.583-4.344c.9-1.423,1.9-2.775,2.847-4.167l5.786-8.266-5.322,8.561c-.877,1.43-1.817,2.826-2.643,4.284l-2.37,4.438c-3.212,5.878-6.2,11.9-9.027,17.974a350.921,350.921,0,0,0-15.005,37.286c-4.419,12.658-8.032,25.585-11.205,38.618S381.069,563.067,378.771,576.316Z" transform="translate(-56.386 -351.329)"/>
        <path id="Path_96" data-name="Path 96" class="cls-2" d="M432.879,437.407a23.189,23.189,0,0,1-4.278,8.725,43.8,43.8,0,0,1-6.672,7.131,60.96,60.96,0,0,1-7.848,5.747c-1.393.824-2.809,1.608-4.232,2.37-1.481.664-2.92,1.387-4.42,1.99l7.742-5.7c2.507-1.962,5.048-3.857,7.4-5.97a71.3,71.3,0,0,0,6.783-6.585c1.041-1.18,2.063-2.385,2.994-3.664A23.267,23.267,0,0,0,432.879,437.407Z" transform="translate(-48.298 -347.772)"/>
        <path id="Path_97" data-name="Path 97" class="cls-2" d="M393.307,518.724A80.122,80.122,0,0,1,398,506.967a82.026,82.026,0,0,1,6.4-10.98,44.156,44.156,0,0,1,8.647-9.442,19.451,19.451,0,0,1,5.642-3.179,11.025,11.025,0,0,1,6.359-.339c-4.295-.272-7.972,2.074-10.967,4.763a55.988,55.988,0,0,0-7.987,9.388c-2.392,3.386-4.562,6.942-6.67,10.546C397.337,511.347,395.287,515,393.307,518.724Z" transform="translate(-51.976 -334.029)"/>
        <path id="Path_98" data-name="Path 98" class="cls-2" d="M393.732,525.843a78.7,78.7,0,0,0,2.387,9.585,23.16,23.16,0,0,0,4.385,8.333,8.1,8.1,0,0,0,8.089,2.514,29.438,29.438,0,0,0,8.84-4,20.665,20.665,0,0,1-8.444,5.567,10.042,10.042,0,0,1-5.375.2,9.825,9.825,0,0,1-4.63-2.875,20.763,20.763,0,0,1-4.417-9.309A35.494,35.494,0,0,1,393.732,525.843Z" transform="translate(-51.865 -320.939)"/>
        <path id="Path_99" data-name="Path 99" class="cls-2" d="M452.655,484.195a31.28,31.28,0,0,0-11.031,7.585,20.776,20.776,0,0,0-5.435,11.769c-1.058,8.854,3.721,17.1,6.817,25.582a124.185,124.185,0,0,1,4.261,13.038c1.087,4.441,1.889,9.159.989,13.834a17.422,17.422,0,0,1-2.65,6.529,19.166,19.166,0,0,1-4.939,4.927,28.742,28.742,0,0,1-6.113,3.166,45.812,45.812,0,0,1-6.525,2c4.265-1.5,8.552-3.186,12.034-5.988a16.458,16.458,0,0,0,6.62-10.908,33.429,33.429,0,0,0-1.245-13.093,123.851,123.851,0,0,0-4.368-12.77c-1.571-4.252-3.3-8.424-4.807-12.757a28.56,28.56,0,0,1-1.649-13.778,21.974,21.974,0,0,1,6.281-12.257A29.911,29.911,0,0,1,452.655,484.195Z" transform="translate(-41.44 -333.576)"/>
        <path id="Path_100" data-name="Path 100" class="cls-2" d="M447.754,536.969c1.681-1.714,3.372-3.4,4.974-5.176,1.645-1.727,3.253-3.485,4.8-5.291a130.816,130.816,0,0,0,8.775-11.179,63.015,63.015,0,0,0,6.823-12.311,29.708,29.708,0,0,0,1.86-6.761,22.67,22.67,0,0,0,.081-7.078,19.934,19.934,0,0,1,.929,7.181,30.319,30.319,0,0,1-1.367,7.188,49.8,49.8,0,0,1-6.623,12.959,81.936,81.936,0,0,1-9.315,11.082A83.923,83.923,0,0,1,447.754,536.969Z" transform="translate(-35.455 -332.065)"/>
        <path id="Path_101" data-name="Path 101" class="cls-2" d="M592.648,368.638c-3.561,3.335-7.209,6.568-10.724,9.936-3.383,3.508-6.907,6.872-10.165,10.486l-4.874,5.435c-1.623,1.813-3.282,3.591-4.774,5.515l-4.594,5.669c-1.541,1.881-3.079,3.764-4.476,5.757a297.08,297.08,0,0,0-30.484,49.6,267.824,267.824,0,0,0-19.945,54.655,230.789,230.789,0,0,0-6.746,57.852l-.259-14.638.8-14.632c.529-4.855,1.247-9.692,1.863-14.545.811-4.819,1.865-9.6,2.788-14.4a259.542,259.542,0,0,1,19.636-55.2,286.452,286.452,0,0,1,31.087-49.66A256.447,256.447,0,0,1,592.648,368.638Z" transform="translate(-20.937 -368.638)"/>
        <path id="Path_102" data-name="Path 102" class="cls-2" d="M608.549,405.418a345.6,345.6,0,0,1-28.292,34.345,284.247,284.247,0,0,1-32.778,30.2,168.972,168.972,0,0,1-18.586,12.416,94.773,94.773,0,0,1-20.531,8.922,53.121,53.121,0,0,1-22.256,1.877,39.9,39.9,0,0,1-20.034-9.312,40.586,40.586,0,0,0,20.17,8.305,52.071,52.071,0,0,0,21.664-2.4c14.013-4.458,26.665-12.471,38.311-21.454a304.312,304.312,0,0,0,32.89-29.654q7.76-7.93,15.091-16.281Q601.605,414.108,608.549,405.418Z" transform="translate(-29.897 -357.478)"/>
        <path id="Path_103" data-name="Path 103" class="cls-2" d="M601.809,450.36c-3.106,14.752-6.77,29.379-10.7,43.938S582.8,523.29,578.1,537.628a434.752,434.752,0,0,1-16.406,42.2,160.814,160.814,0,0,1-10.821,19.925,58.464,58.464,0,0,1-7.074,8.885c-2.649,2.628-5.854,5.161-9.683,5.538a11.779,11.779,0,0,0,5.116-2.2,24.656,24.656,0,0,0,4.171-3.723,57.526,57.526,0,0,0,6.614-9.054,161.162,161.162,0,0,0,10.224-20.035c6.02-13.765,11.175-27.914,15.9-42.2,4.857-14.242,9.2-28.661,13.454-43.1q3.206-10.829,6.215-21.719C597.875,464.906,599.832,457.632,601.809,450.36Z" transform="translate(-9.253 -343.842)"/>
        <path id="Path_104" data-name="Path 104" class="cls-2" d="M503.662,554.472a9.918,9.918,0,0,0,6.787,1.5,22.3,22.3,0,0,0,6.739-2.087l3.149-1.646c1.013-.615,1.968-1.336,2.952-2a50.4,50.4,0,0,0,5.589-4.432c1.863-1.483,3.493-3.242,5.206-4.9a68.026,68.026,0,0,0,4.954-5.173l4.747-5.381c1.512-1.856,2.965-3.764,4.451-5.642s3.058-3.689,4.451-5.643l4.232-5.82c1.4-1.951,2.859-3.855,4.2-5.846,1.32-2,2.672-3.99,4.035-5.967,2.718-3.961,5.469-7.9,7.991-12,2.641-4.021,5.222-8.08,7.921-12.075-4.67,8.416-9.3,16.882-14.581,24.951q-1.914,3.068-3.885,6.1c-1.322,2.018-2.767,3.952-4.145,5.932l-4.183,5.91c-1.376,1.981-2.946,3.827-4.416,5.743-1.522,1.876-3.012,3.779-4.562,5.632l-4.874,5.381a69.619,69.619,0,0,1-5.091,5.181,53.161,53.161,0,0,1-5.434,4.834,51.463,51.463,0,0,1-5.885,4.3c-1.037.64-2.037,1.333-3.1,1.924l-3.318,1.56a23.06,23.06,0,0,1-7.1,1.706C508.073,556.569,505.478,556.122,503.662,554.472Z" transform="translate(-18.492 -335.648)"/>
        <path id="Path_105" data-name="Path 105" class="cls-2" d="M627.841,450.4a82.084,82.084,0,0,0-13.952,17.979,103.616,103.616,0,0,0-9.2,20.719c-.579,1.8-1.015,3.647-1.53,5.469-.241.915-.512,1.822-.73,2.744L601.9,500.1c-.351,1.861-.765,3.713-1.068,5.585l-.682,5.654-.357,2.83-.126,2.848-.257,5.708c-.107,3.81.15,7.622.114,11.464-.431-3.8-.893-7.617-1.129-11.451l-.036-5.768-.014-2.888.218-2.88.472-5.765c.257-1.911.63-3.807.94-5.713l.5-2.852c.214-.942.482-1.87.719-2.806.511-1.864.938-3.751,1.519-5.6a88.554,88.554,0,0,1,9.825-20.928,82.933,82.933,0,0,1,6.913-9.261A59.009,59.009,0,0,1,627.841,450.4Z" transform="translate(10.236 -343.829)"/>
        <path id="Path_106" data-name="Path 106" class="cls-2" d="M634.43,470.164c-.855,2.311-1.73,4.6-2.492,6.928-.818,2.306-1.59,4.625-2.282,6.964a121.045,121.045,0,0,0-3.472,14.145,46.685,46.685,0,0,0-.584,14.321,16.779,16.779,0,0,0,7.023,12.024,14.218,14.218,0,0,1-5.7-4.752,20.015,20.015,0,0,1-2.89-6.984c-1.1-4.972-.67-10.065.111-14.962a79.6,79.6,0,0,1,4.012-14.3A87.36,87.36,0,0,1,634.43,470.164Z" transform="translate(17.829 -337.833)"/>
        <path id="Path_107" data-name="Path 107" class="cls-2" d="M726.783,432.99a82.009,82.009,0,0,0-13.952,17.979,103.634,103.634,0,0,0-9.2,20.72c-.579,1.8-1.015,3.646-1.53,5.468-.241.915-.512,1.824-.73,2.744l-.532,2.792c-.351,1.861-.765,3.715-1.067,5.586l-.682,5.653-.357,2.83-.127,2.848-.257,5.708c-.107,3.811.15,7.622.113,11.464-.432-3.8-.893-7.617-1.129-11.451l-.037-5.768-.014-2.888.218-2.879.472-5.766c.257-1.911.63-3.806.94-5.713l.506-2.852c.212-.941.481-1.87.719-2.806.51-1.864.937-3.751,1.517-5.594a88.53,88.53,0,0,1,9.825-20.928,83.019,83.019,0,0,1,6.913-9.262A59.015,59.015,0,0,1,726.783,432.99Z" transform="translate(40.257 -349.112)"/>
        <path id="Path_108" data-name="Path 108" class="cls-2" d="M733.371,452.753c-.855,2.311-1.73,4.6-2.491,6.928-.82,2.306-1.591,4.625-2.284,6.964a121.062,121.062,0,0,0-3.472,14.145,46.742,46.742,0,0,0-.584,14.322,16.779,16.779,0,0,0,7.023,12.023,14.2,14.2,0,0,1-5.7-4.752,20.008,20.008,0,0,1-2.89-6.982c-1.1-4.972-.67-10.065.111-14.963a79.685,79.685,0,0,1,4.012-14.3A87.419,87.419,0,0,1,733.371,452.753Z" transform="translate(47.85 -343.116)"/>
        <path id="Path_109" data-name="Path 109" class="cls-2" d="M658.791,475.5c-2.318,5.916-4.738,11.693-6.706,17.607a67.064,67.064,0,0,0-2.435,8.96c-.533,3.017-.957,6.138-.1,9.223-1.636-2.8-1.807-6.267-1.505-9.441a41.727,41.727,0,0,1,2.072-9.4A63.985,63.985,0,0,1,658.791,475.5Z" transform="translate(25.281 -336.214)"/>
        <path id="Path_110" data-name="Path 110" class="cls-2" d="M661.637,441.918a8.008,8.008,0,0,1-2.533-5.284,8.8,8.8,0,0,1,1.715-5.867,13.84,13.84,0,0,1,2.057-2.237,21.463,21.463,0,0,1,2.445-1.672,25.963,25.963,0,0,1,2.649-1.211c.928-.285,1.846-.572,2.787-.766-.759.617-1.541,1.142-2.313,1.668s-1.472,1.138-2.222,1.654a18.958,18.958,0,0,0-3.711,3.76,9.013,9.013,0,0,0-1.795,4.654A11.65,11.65,0,0,0,661.637,441.918Z" transform="translate(28.662 -351.573)"/>
        <path id="Path_111" data-name="Path 111" class="cls-2" d="M679.1,454.309l-3.819,16.9c-1.225,5.632-2.5,11.25-3.57,16.9-1.1,5.639-2.066,11.307-2.6,16.994a36.031,36.031,0,0,0,.034,8.488,8.087,8.087,0,0,0,1.371,3.857,3.694,3.694,0,0,0,3.768,1.165,4.964,4.964,0,0,1-2.175.256,3.51,3.51,0,0,1-2-1.053,8.832,8.832,0,0,1-1.96-4.028A36.606,36.606,0,0,1,667.51,505a112.024,112.024,0,0,1,2.164-17.3c1.134-5.687,2.466-11.327,4.063-16.891C675.318,465.249,677.032,459.719,679.1,454.309Z" transform="translate(31.217 -342.644)"/>
        <path id="Path_112" data-name="Path 112" class="cls-2" d="M777.152,500.211a125.1,125.1,0,0,1-3.741,15.963,116.381,116.381,0,0,1-5.747,15.409c-2.366,4.953-5.022,9.88-8.841,13.992a19.68,19.68,0,0,1-6.754,4.96,9.892,9.892,0,0,1-8.14-.292,9.87,9.87,0,0,0,7.73-.639,18.617,18.617,0,0,0,5.964-5.082,66.286,66.286,0,0,0,8.161-13.81c2.288-4.889,4.226-9.951,6.12-15.037.942-2.546,1.826-5.116,2.677-7.7C775.494,505.408,776.3,502.809,777.152,500.211Z" transform="translate(54.41 -328.716)"/>
        <path id="Path_113" data-name="Path 113" class="cls-2" d="M795.25,427.591c-.922,2.578-1.906,5.119-2.779,7.7q-1.412,3.836-2.724,7.7c-1.74,5.156-3.478,10.3-5.061,15.5-1.618,5.186-3.021,10.427-4.4,15.681-.622,2.642-1.294,5.279-1.778,7.952-.655,2.65-.985,5.347-1.538,8.034a100.316,100.316,0,0,1,1.757-16.325,154.29,154.29,0,0,1,3.975-15.95c1.648-5.225,3.45-10.4,5.556-15.453A144.765,144.765,0,0,1,795.25,427.591Z" transform="translate(64.436 -350.75)"/>
        <path id="Path_114" data-name="Path 114" class="cls-2" d="M780.828,419.344A133.167,133.167,0,0,0,768.29,437.72a129.083,129.083,0,0,0-9.2,20.137,99.992,99.992,0,0,0-5.072,21.467l-.553,5.5c0,1.842-.037,3.682-.083,5.527-.012.922-.063,1.847-.042,2.768l.219,2.757L754,501.4l-.056-.173c.53,1.066,1.339,1.993,2.444,1.886a5.848,5.848,0,0,0,3.137-1.691,30.919,30.919,0,0,0,4.834-6.021,27.232,27.232,0,0,1-4.393,6.481,6.543,6.543,0,0,1-3.489,2.142,2.883,2.883,0,0,1-2.185-.6,5.718,5.718,0,0,1-1.354-1.68l-.046-.078-.012-.1-.687-5.583-.343-2.8c-.063-.937-.052-1.876-.082-2.814-.047-1.88-.081-3.762-.083-5.643l.482-5.622c.094-.936.138-1.878.272-2.809l.489-2.778c.358-1.844.579-3.723,1.054-5.542s.941-3.643,1.449-5.452,1.217-3.557,1.816-5.338a106.706,106.706,0,0,1,9.821-20.2A99.807,99.807,0,0,1,780.828,419.344Z" transform="translate(56.763 -353.253)"/>
        <path id="Path_115" data-name="Path 115" class="cls-2" d="M826.955,408.917c-2.35,4.14-4.638,8.3-6.767,12.552q-3.271,6.325-6.221,12.8a209.414,209.414,0,0,0-10.229,26.469,106.15,106.15,0,0,0-5.218,27.7,53.916,53.916,0,0,0,1.238,13.995,37.52,37.52,0,0,0,5.506,12.969,35.6,35.6,0,0,1-6.49-12.715,54.778,54.778,0,0,1-1.849-14.276c.073-9.641,2.083-19.133,4.833-28.286a186.909,186.909,0,0,1,10.777-26.54A200.718,200.718,0,0,1,826.955,408.917Z" transform="translate(70.49 -356.417)"/>
        <path id="Path_116" data-name="Path 116" class="cls-2" d="M878.614,408.917a124.372,124.372,0,0,1-5.338,31.858A135.941,135.941,0,0,1,860.338,470.5,117.44,117.44,0,0,1,840,495.759a109.465,109.465,0,0,1-26.663,18.224,135.391,135.391,0,0,0,13.4-8.93A112.231,112.231,0,0,0,838.9,494.606a135.935,135.935,0,0,0,10.671-11.931,131.519,131.519,0,0,0,8.99-13.234,143.549,143.549,0,0,0,13.2-29.141A149.4,149.4,0,0,0,876,424.806,127.168,127.168,0,0,0,878.614,408.917Z" transform="translate(75.47 -356.417)"/>
        <path id="Path_117" data-name="Path 117" class="cls-2" d="M832.488,408.917a46.076,46.076,0,0,1-.764,11.826,68.186,68.186,0,0,1-3.2,11.454,72.089,72.089,0,0,1-5.21,10.685c-.963,1.734-2.149,3.328-3.237,4.979-1.164,1.6-2.42,3.132-3.659,4.665a117.581,117.581,0,0,0,6.2-10.039,81.833,81.833,0,0,0,4.936-10.659,76.877,76.877,0,0,0,3.389-11.241A61.339,61.339,0,0,0,832.488,408.917Z" transform="translate(76.405 -356.417)"/>
        <path id="Path_118" data-name="Path 118" class="cls-2" d="M745.794,535.468q7-8.544,14.082-17l14.189-16.905,28.367-33.82q-6.6,8.847-13.543,17.44c-4.607,5.74-9.324,11.39-14.033,17.046-4.773,5.6-9.532,11.217-14.378,16.755S750.744,530.021,745.794,535.468Z" transform="translate(54.976 -338.568)"/>
      </g>
      <path id="Path_119" data-name="Path 119" class="cls-2" d="M679.123,418.646c10.3-1.887,20.512-4.23,30.647-6.846,10.15-2.557,20.246-5.325,30.325-8.163,20.164-5.652,40.323-11.384,60.677-16.458,10.2-2.454,20.445-4.726,30.786-6.565a228.644,228.644,0,0,1,31.3-3.659c10.486-.356,21.2.163,31.3,3.4a41.454,41.454,0,0,1,13.853,7.516,34.435,34.435,0,0,1,5.364,5.785,37.683,37.683,0,0,1,3.82,6.868,34.321,34.321,0,0,0-9.533-12.227,40.653,40.653,0,0,0-13.81-6.971c-9.97-2.985-20.546-3.326-30.92-2.779-20.835,1.228-41.372,5.675-61.669,10.642-20.344,4.893-40.485,10.652-60.752,15.979C720.247,410.454,699.886,415.688,679.123,418.646Z" transform="translate(34.746 -366.144)"/>
    </g>
  </g>
</svg>
